<svg version="1.2" xmlns="http://www.w3.org/2000/svg" viewBox="0 0 1080 1080" width="1080" height="1080">
	<title>komala (1)</title>
	<defs>
		<clipPath clipPathUnits="userSpaceOnUse" id="cp1">
			<path d="m133.26 415.12c0 0-25.51-191.97 217.3-306.2 0 0 97.17-50.59 192.61-24.69 0 0 51.55 11.84 123.46 98.77 0 0 274.96 321.09 340.77 528.43 0 0-41.13 156.23-187.67 251.87 0 0-211.78 105.09-345.7-9.88 0 0-244.2-259-340.77-538.3z"/>
		</clipPath>
	</defs>
	<style>
		.s0 { fill: #8a6b57 } 
		.s1 { opacity: .1;fill: #ffffff } 
		.s2 { fill: #d6ceb2;stroke: #000000;paint-order:stroke fill markers;stroke-linejoin: round;stroke-width: 2 } 
		.s3 { opacity: .1;fill: #000000 } 
		.s4 { fill: #9c8f7a;stroke: #000000;paint-order:stroke fill markers;stroke-linejoin: round;stroke-width: 4 } 
		.s5 { fill: #5a463c;stroke: #000000;paint-order:stroke fill markers;stroke-linejoin: round;stroke-width: 4 } 
		.s6 { fill: #d6ceb2;stroke: #000000;paint-order:stroke fill markers;stroke-linejoin: round;stroke-width: 4 } 
		.s7 { fill: #684e41;stroke: #000000;paint-order:stroke fill markers;stroke-linejoin: round;stroke-width: 4 } 
		.s8 { opacity: .2;fill: #000000 } 
		.s9 { fill: none;stroke: #000000;stroke-miterlimit:100;stroke-width: 2 } 
	</style>
	<g clip-path="url(#cp1)">
		<path id="Color Fill 1" class="s0" d="m133.3 415.1c0 0-25.5-191.9 217.3-306.2 0 0 97.1-50.6 192.6-24.7 0 0 51.5 11.9 123.4 98.8 0 0 275 321.1 340.8 528.4 0 0-41.1 156.3-187.7 251.9 0 0-211.8 105.1-345.7-9.9 0 0-244.2-259-340.7-538.3z"/>
		<path id="Layer 6" class="s1" d="m350.6 425c0 0 5.2 111.5 93.8 133.3 0 0 40.1 62.3 79 69.2 0 0-47.1-78.9 5-138.3 0 0 20.1-86.4-19.8-138.3z"/>
		<path id="Layer 1" class="s2" d="m98.7 365.7c0 0 56 190.7 192.6 69.2 0 0 169.2 123.5 256.8-84 0 0 194.3 24.1 217.3-301.2l-533.4-5z"/>
		<path id="Layer 3" class="s3" d="m628 60.4c0 0 1.8 10.9 4.2 28.6 2.5 17.7 5.5 42.1 8.1 69.1 2.5 27 4.6 56.6 5 84.5 0.4 27.9-0.8 54.2-4.6 74.7 0 0 12.1 27.8 27.1 61.5 7.5 16.8 15.7 35.1 23.5 52.2 7.8 17 15.2 32.8 21.1 44.5 0 0 1.9 12.6 5.5 32.3 3.6 19.6 8.9 46.3 15.8 74.4 6.8 28.1 15.2 57.5 24.9 82.9 9.8 25.3 20.8 46.4 33.1 57.7 0 0 7-22.6 21.6-6.6 7.2 7.9 16.4 25.5 27.5 60.3 5.6 17.4 11.7 39.1 18.2 66.1 3.3 13.5 6.7 28.3 10.3 44.5 3.6 16.3 7.3 34 11.1 53.2 0 0 28.8 19.8 57.5 39.5 28.8 19.8 57.7 39.5 57.7 39.5 0 0 12.2-20 30.7-50.1 9.2-15.1 19.9-32.6 31.4-51.4 11.5-18.8 23.8-38.9 36.1-59 12.2-20 24.5-40.1 36-58.9 11.5-18.8 22.2-36.4 31.4-51.4 18.4-30.1 30.7-50.2 30.7-50.2 0 0-6.2-10.5-17.1-28.8-10.8-18.4-26.3-44.7-44.9-76.1-9.2-15.8-19.3-32.9-29.9-50.9-10.6-18-21.8-37.1-33.3-56.8-11.5-19.7-23.5-40-35.6-60.7-12-20.7-24.3-41.7-36.5-62.7-12.3-21-24.5-42.1-36.6-62.8-12-20.6-23.8-41-35.3-60.7-11.5-19.7-22.6-38.8-33.1-56.8-10.5-18.1-20.5-35.2-29.7-51-18.4-31.5-33.8-57.7-44.6-76.1-10.9-18.4-17.1-28.9-17.1-28.9 0 0-10.6 2.1-26.4 5.4-15.9 3.2-37.1 7.5-58.4 11.7-21.3 4.3-42.6 8.7-58.6 11.9-16.1 3.2-26.8 5.4-26.8 5.4z"/>
		<path id="Layer 2" class="s4" d="m454.3 943.5c0 0 97.5-11 133.3 24.7 0 0 34.7-143.4 212.4-83.9 0 0 19.5-149.1 172.8-108.7 0 0 4.4-121.5 44.5-108.6l138.3 365.4-607.5 118.6z"/>
		<path id="Shape 3 copy" class="s5" d="m742.7 484.1c9.8-6.7 30.5 10.9 46.3 39.2 15.8 28.4 20.7 56.6 10.9 63.3-9.8 6.6-30.6-10.9-46.4-39.3-15.8-28.3-20.7-56.6-10.8-63.2z"/>
		<path id="Shape 1" class="s6" d="m411.5 290.2c-101.8 56.3-202.4 69.3-225.3 28.9-22.8-40.5 40.9-118.7 142.6-175.1 101.8-56.4 202.4-69.3 225.3-28.9 22.8 40.4-40.9 118.7-142.6 175.1z"/>
		<path id="Shape 1 copy" class="s6" d="m398.4 244.3c-59.8 33.8-121.6 48.2-138.3 32.3-16.7-16 18.1-56.1 77.9-89.8 59.7-33.8 121.5-48.2 138.2-32.3 16.7 15.9-18.1 56.1-77.8 89.8z"/>
		<path id="Shape 2" class="s7" d="m436.1 692c-12.1 4.9-48.9-22-77.1-62-15.1-40.1-18.2-75.5-6.4-80.8 13.5-4.7 37.1 20.5 56.1 59.3 28.3 41.7 41.2 78.5 27.4 83.5z"/>
		<path id="Layer 7" class="s1" d="m587.6 652.2c0 0-11.1 67.4 29.6 103.7 0 0 36.1 37 59.3 44.4l-14.8-64.2c0 0-51.7-56.7-74.1-83.9z"/>
		<path id="Shape 3" class="s7" d="m644.8 702.5c11.7-7.2 36.4 11.8 55.3 42.4 18.8 30.7 24.6 61.3 12.9 68.5-11.7 7.1-36.3-11.8-55.2-42.5-18.8-30.7-24.6-61.2-13-68.4z"/>
		<path id="Layer 5" class="s8" d="m123.4 346c0 0 73.1 138.5 88.9 182.7 0 0 24.5 24.4 54.3 44.5 0 0 9.8 62.2 34.6 79 0 0 63.5 83.8 88.9 133.3 0 0 19.4 39.4 74.1 44.5 0 0 40.9 44.9 88.8 113.5 0 0 77.8 59.4 64.2 88.9l-187.6 34.6-355.6-479z"/>
		<path id="Layer 4" class="s9" d="m485.6 326.5c-147.3 101.1-314.4 112.8-373.9 26.2-59.4-86.7 11.5-238.4 158.8-339.5 147.3-101.1 314.5-112.8 373.9-26.2 59.5 86.6-11.5 238.4-158.8 339.5z"/>
	</g>
</svg>